<?xml version="1.0" encoding="utf-8"?>
<!-- Generator: Adobe Illustrator 16.0.4, SVG Export Plug-In . SVG Version: 6.00 Build 0)  -->
<!DOCTYPE svg PUBLIC "-//W3C//DTD SVG 1.1//EN" "http://www.w3.org/Graphics/SVG/1.1/DTD/svg11.dtd">
<svg version="1.1" id="Layer_1" xmlns="http://www.w3.org/2000/svg" xmlns:xlink="http://www.w3.org/1999/xlink" x="0px" y="0px"
	 width="114px" height="146px" viewBox="0 0 114 146" enable-background="new 0 0 114 146" xml:space="preserve">
<rect x="14.982" y="17.444" fill="#93C663" width="73.693" height="98.077"/>
<rect x="19.897" y="22.356" fill="#ADD289" width="73.692" height="98.078"/>
<path fill="none" stroke="#FFFFFF" stroke-miterlimit="10" d="M88.675,22.356v-4.914H14.982v98.076h4.915 M93.589,50.505V22.356
	H19.897v98.078h6"/>
<g>
	<rect x="25.327" y="28.021" fill="#C7DFAD" width="72.879" height="97.139"/>
	<rect x="25.327" y="28.021" fill="none" stroke="#FFFFFF" width="72.879" height="97.139"/>
</g>
<line fill="none" stroke="#79BC43" x1="35.917" y1="105.025" x2="45.672" y2="105.025"/>
<line fill="none" stroke="#79BC43" stroke-miterlimit="10" x1="50.547" y1="105.033" x2="87.126" y2="105.033"/>
<line fill="none" stroke="#79BC43" x1="35.917" y1="93.817" x2="45.672" y2="93.817"/>
<line fill="none" stroke="#79BC43" stroke-miterlimit="10" x1="50.547" y1="93.82" x2="87.126" y2="93.82"/>
<line fill="none" stroke="#79BC43" x1="35.917" y1="82.607" x2="45.672" y2="82.607"/>
<line fill="none" stroke="#79BC43" stroke-miterlimit="10" x1="50.547" y1="82.608" x2="87.126" y2="82.608"/>
<line fill="none" stroke="#79BC43" x1="35.917" y1="71.397" x2="45.672" y2="71.397"/>
<line fill="none" stroke="#79BC43" stroke-miterlimit="10" x1="50.547" y1="71.397" x2="87.126" y2="71.397"/>
<line fill="none" stroke="#79BC43" x1="35.917" y1="61.041" x2="45.672" y2="61.041"/>
<line fill="none" stroke="#79BC43" stroke-miterlimit="10" x1="50.547" y1="61.041" x2="87.126" y2="61.041"/>
<line fill="none" stroke="#79BC43" x1="35.917" y1="49.831" x2="45.672" y2="49.831"/>
<line fill="none" stroke="#79BC43" stroke-miterlimit="10" x1="50.547" y1="49.829" x2="87.126" y2="49.829"/>
</svg>
