<svg id="Layer_1" xmlns="http://www.w3.org/2000/svg" width="90.7" height="99.2" viewBox="-252 377.3 90.7 99.2"><style>.st0{fill:#E9F3E2;} .st1{fill:#A1D080;} .st2{fill:#D0E6BA;} .st3{fill:#62974D;} .st4{fill:none;stroke:#FFFFFF;} .st5{fill:none;stroke:#FFFFFF;stroke-miterlimit:10;}</style><path class="st0" d="M-180 390.5h17.4v70.2H-180z"/><path class="st1" d="M-201.7 403.6h17.4v57.1h-17.4zM-223.5 416.9h17.4v43.8h-17.4zM-245.4 430h17.4v30.7h-17.4z"/><path class="st2" d="M-184 386.5l4 4h17.4l-4-4.1zM-205.8 399.7l4 4h17.5l-4.1-4zM-228 413l4 4h17.4l-4-4.1zM-249.5 426.4l4 4.1h17.5l-4.1-4.1z"/><path class="st3" d="M-184 386.5l4 4v70.2l-4.5-4.5zM-205.8 399.7l4 4v57l-4.5-4.5zM-227.6 413l4 4v43.7l-4.5-4.5zM-249.2 426.4l4 4.1v30.2l-4.5-4.5z"/><path class="st4" d="M-162.6 460.7H-180v-70.2h17.4v70.2zm-65.1-30.8l-4-3.8m-13.7 3.8l-4-3.8m-.1-.1v30.9l4 3.8"/><path class="st5" d="M-246.6 466.4h85.1m-66.4-5.7h-17.4v-30.8h17.4v30.8zm21.8 0h-17.4v-43.9h17.4v43.9zm21.8 0h-17.4v-57h17.4v57z"/><path class="st4" d="M-166.2 386.4h-18.6m22.2 3.8l-4-3.8m-13.4 3.9l-4-3.8m-.3-.1v70.3l4 3.8m-7.7-60.8h-18.6m22.3 3.9l-4-3.8m-13.4 3.8l-4-3.8m-.4-.1v57l4 3.8m-7.6-47.5h-18.7m22.3 3.9l-4-3.8m-13.7 3.8l-4-3.8m0-.1v43.7l4 3.8m-7.5-34.5H-250"/></svg>