<svg id="Layer_1" xmlns="http://www.w3.org/2000/svg" width="82" height="59" viewBox="-639.6 674.8 100 70.8"><style>.st0{fill:#DD891D;} .st1{fill:#FCCE9D;} .st2{fill:#F7A24A;} .st3{fill:#FBC288;} .st4{fill:#F9B775;} .st5{fill:none;stroke:#FFFFFF;}</style><path class="st0" d="M-553.4 685.7l7.9 7h5.4l-8-7z"/><path class="st1" d="M-623 696.4h75.8v48.7H-623z"/><path class="st2" d="M-566.2 717.9h13.6v15.5h-13.6zM-616.7 717.9h13.6v15.5h-13.6zM-598.7 718h13.9v27.1h-13.9z"/><path class="st2" d="M-585.1 718h13.9v27.1h-13.9z"/><path class="st3" d="M-631.2 692.7h91.1v3.6h-91.1z"/><path class="st4" d="M-625.7 682.9h81.2v9.9h-81.2z"/><path class="st1" d="M-633.6 675.3l7.9 7.6h81.1l-8-7.6z"/><path class="st2" d="M-633.7 685.7l8 7v-9.8l-7.9-7.6zM-639 689.5l7.8 6.9v-3.7l-7.7-6.9z"/><path class="st2" d="M-639 685.7l7.8 7h5.5l-8-7zM-631.2 696.4v41.1l8.2 7.6v-48.7z"/><path class="st5" d="M-544.6 688.6l4.4 4.2m-99.1-7.1h5.5m-5.2 0v3.7m5.3-14.1v10.9m.1-10.9h81.3m-46.3 69.8h13.6V718h-13.6v27.1zm13.6 0h13.6V718H-585v27.1zm-31.7-11.7h13.6V718h-13.6v15.4zm50.5 0h13.6V718h-13.6v15.4zm-56.8 11.7h75.8v-48.7H-623v48.7zm-8.2-48.7h91.1v-3.6h-91.1v3.6zm86.6-3.6v-9.9h-81.1v9.9m73.3-17.5l8 7.6m-89.3-7.6l8 7.6m-7.9 2.3l8 7.6m-13.7-7.1l8 7.6m-8-4.5l8 7.6m0 .4v40.7l8 7.6"/></svg>