<svg id="Layer_1" xmlns="http://www.w3.org/2000/svg" width="61" height="78" viewBox="-635.6 664 75.5 96.2"><style>.st0{fill:#93C663;} .st1{fill:#ADD289;} .st2{fill:#C7DFAD;} .st3{fill:none;stroke:#79BC43;} .st4{fill:none;stroke:#79BC43;stroke-miterlimit:10;} .st5{fill:#A8D271;} .st6{fill:none;stroke:#FFFFFF;} .st7{fill:none;stroke:#FFFFFF;stroke-miterlimit:10;}</style><path class="st0" d="M-635.1 664.5h64.9v86.4h-64.9z"/><path class="st1" d="M-630.7 668.8h64.9v86.4h-64.9z"/><path class="st2" d="M-560.5 698.6v61.1h-65v-86.4h39z"/><path class="st3" d="M-616.6 741.6h8.6"/><path class="st4" d="M-603.7 741.6h32.2"/><path class="st3" d="M-616.6 731.7h8.6"/><path class="st4" d="M-603.7 731.7h32.2"/><path class="st3" d="M-616.6 721.9h8.6"/><path class="st4" d="M-603.7 721.9h32.2"/><path class="st3" d="M-616.6 712h8.6"/><path class="st4" d="M-603.7 712h32.2"/><path class="st5" d="M-586 673.8v24.3h25.5z"/><path class="st6" d="M-561.2 698.1l-24.8-24.2v24.2z"/><path class="st7" d="M-570.1 668.8v-4.3h-65v86.4h4.3m65-57.3v-24.8h-64.9v86.4h5.3m38.9-81.9h-39v86.4h64.9v-61.1"/></svg>