<svg id="Layer_1" xmlns="http://www.w3.org/2000/svg" width="70" height="56" viewBox="-638.4 679.6 86.9 72.6"><style>.st0{fill:#ADBEE2;} .st1{fill:#B1C3E5;} .st2{fill:#E3E8F5;} .st3{fill:none;stroke:#6185C4;} .st4{fill:none;stroke:#FFFFFF;}</style><path class="st0" d="M-566 707.7h-66.8l-5.1 4.8 67.2.2z"/><path class="st1" d="M-566 708.2l-4.7 4.5.2 39.1 7.6-7.2v-5.4h-3.2z"/><path class="st0" d="M-586.4 712.5l8.8 39.1h-60.3v-39.1z"/><path class="st2" d="M-570.7 712.7h-15.7l8.8 38.9h7.1z"/><path class="st1" d="M-566.1 739.2h10.1c3.9 0 3.9-3.7 3.9-3.7v-51.7c0-3.7-3.9-3.7-3.9-3.7h-72.6c-3.9 0-3.9 3.7-3.9 3.7v23.9h66.5l-.1 31.5z"/><path class="st3" d="M-592.3 738.6h-36m63-42.5h-60.5m60.5-6.4h-60.5m33.5 42.5h-36m36-6.5h-36"/><path class="st4" d="M-562.9 739.5v5.1l-7.6 7.2m-67.5-39.2l5.2-5.2m61.3 6.1l5.2-5.2m-4.4 4.4v38.9h-6.9l-8.6-38.9h15.5zm0 38.9h-67v-38.9h67v38.9zm-62.6-43.9h67.3v31.8m-66.5-31.8v-23.9s0-3.7 3.9-3.7h72.7s3.9 0 3.9 3.7v51.7s0 3.7-3.9 3.7h-10.8"/></svg>