<svg id="Layer_1" xmlns="http://www.w3.org/2000/svg" width="110.7" height="101.3" viewBox="-255 370.6 90.7 101.3"><style>.st0{fill:#97ADD9;} .st1{fill:#CCD5EC;} .st2{fill:none;stroke:#FFFFFF;} .st3{fill:#7798CE;} .st4{fill:#5A86C4;} .st5{fill:none;stroke:#FFFFFF;stroke-miterlimit:10;}</style><path class="st0" d="M-238.7 378.2h69v92.2h-69z"/><path class="st1" d="M-227 397.4h45.9v27.5H-227z"/><path class="st2" d="M-188 415.4h-33m33-8.5h-33"/><path class="st3" d="M-238.7 378.2l64.5-3v3"/><path class="st4" d="M-238.7 378.2l61.4-6.4v3.5"/><path class="st5" d="M-174.2 378.2v-3l-64.5 3 61.4-6.4v3.5M-238.5 378.6h68.8v91.8h-68.8z"/><path class="st2" d="M-227 397.4h45.9v27.5H-227z"/><path class="st5" d="M-250 388.2h9.2m-9.2 10.5h9.2m-9.2 10.5h9.2m-9.2 10.5h9.2m-9.2 10.5h9.2m-9.2 10.5h9.2m-9.2 10.5h9.2m-9.2 10.5h9.2"/></svg>