<svg id="Layer_1" xmlns="http://www.w3.org/2000/svg" width="62.4" height="48.2" viewBox="-678 683.5 62.4 48.2"><style>.st0{fill:#A8D271;} .st1{fill:#E7F2D9;} .st2{fill:none;stroke:#FFFFFF;stroke-width:1.001;}</style><path class="st0" d="M-628.3 702.4h-42.9l-3.3 3.1 43.2.1z"/><path class="st0" d="M-628.3 702.7l-3 2.9.1 25.1 4.9-4.6v-3.5h-2zM-641.4 705.5l5.6 25.1h-38.7v-25.1z"/><path class="st1" d="M-631.3 705.6h-10.1l5.6 25h4.6z"/><path class="st0" d="M-628.3 722.6h6.5c2.5 0 2.5-2.4 2.5-2.4v-33.3c0-2.4-2.5-2.4-2.5-2.4h-46.7c-2.5 0-2.5 2.4-2.5 2.4v15.5h42.7v20.2z"/><path class="st2" d="M-645.2 722.3h-23.1m41.1-26.9h-39.5m39.5-4.2h-39.5m21.5 26.9h-23.1m23.1-4.1h-23.1M-626.3 722.8v3.3l-4.9 4.6m-43.3-25.1l3.3-3.3m39.4 3.8l3.4-3.4m-2.9 2.9v25h-4.4l-5.6-25h10zm0 25h-43v-25h43v25zm-40.2-28.2h43.2v20.4m-42.7-20.4v-15.5s0-2.4 2.5-2.4h46.7s2.5 0 2.5 2.4v33.4s0 2.4-2.5 2.4h-6.9"/></svg>