<svg id="icon" xmlns="http://www.w3.org/2000/svg" width="40" height="60" viewBox="0 0 60.25 80.58"><defs><style>.cls-1{fill:#ea8f2c;}.cls-2,.cls-4{fill:#fff;}.cls-2,.cls-3{stroke:#fff;stroke-miterlimit:10;}.cls-2{opacity:0.3;}.cls-3{fill:none;opacity:0.8;}.cls-4{opacity:0.4;}</style></defs><title>icon-6</title><path class="cls-1" d="M206.85,108.46h-222V-38.46h222V108.46M74.85-2.88m0,0v0.75H193.11V-2.88"/><rect class="cls-2" x="0.62" y="0.6" width="58.93" height="79.44"/><rect class="cls-3" x="0.62" y="0.6" width="58.93" height="79.44"/><line class="cls-3" x1="27.35" y1="7.89" x2="55.3" y2="7.89"/><line class="cls-3" x1="27.35" y1="13.97" x2="55.3" y2="13.97"/><line class="cls-3" x1="27.35" y1="19.74" x2="55.3" y2="19.74"/><line class="cls-3" x1="5.28" y1="26.32" x2="33.22" y2="26.32"/><line class="cls-3" x1="5.28" y1="32.39" x2="33.22" y2="32.39"/><line class="cls-3" x1="5.28" y1="38.16" x2="33.22" y2="38.16"/><line class="cls-3" x1="5.28" y1="44.07" x2="55" y2="44.07"/><line class="cls-3" x1="5.28" y1="50.14" x2="55" y2="50.14"/><line class="cls-3" x1="5.28" y1="55.92" x2="55" y2="55.92"/><line class="cls-3" x1="27.35" y1="61.89" x2="55.3" y2="61.89"/><line class="cls-3" x1="27.35" y1="67.97" x2="55.3" y2="67.97"/><line class="cls-3" x1="27.35" y1="73.74" x2="55.3" y2="73.74"/><rect class="cls-4" x="4.47" y="7.28" width="20.65" height="12.76"/><rect class="cls-4" x="4.47" y="61.28" width="20.65" height="12.76"/><rect class="cls-4" x="35.25" y="25.91" width="20.66" height="12.76"/></svg>