<svg id="Layer_1" xmlns="http://www.w3.org/2000/svg" width="62.4" height="48.2" viewBox="-684 677.3 62.4 48.2"><style>.st0{fill:#95ADDA;} .st1{fill:#C3D0EB;} .st2{fill:#E3E8F5;} .st3{fill:#A3D180;} .st4{fill:none;stroke:#FFFFFF;stroke-width:1.001;stroke-miterlimit:10;}</style><path class="st0" d="M-648.2 721.1v.4c0 1.7-1.9 3-4.4 3s-4.4-1.4-4.4-3v-.3"/><path class="st0" d="M-646.6 717.3c.6.4 1 1 1 1.5 0 1.7-3.2 2.9-7.1 2.9-3.9 0-7.1-1.4-7.1-2.9 0-.6.4-1.1 1-1.5"/><path class="st1" d="M-645.6 713v-5.4c4.7-2.5 8.1-7.7 8.1-13.3 0-8.5-6.7-15.2-15.1-15.2-8.4 0-15.1 6.7-15.1 15.1 0 5.7 3.2 10.8 8 13.3v5.5"/><path class="st0" d="M-646.6 714.4c.6.4 1 1 1 1.5 0 1.7-3.2 2.9-7.1 2.9-3.9 0-7.1-1.4-7.1-2.9 0-.6.4-1.1 1-1.5"/><path class="st2" d="M-651.3 690.7c0 2.6-2.1 4.8-4.8 4.8s-4.8-2.1-4.8-4.8c0-2.6 2.1-4.8 4.8-4.8 2.6-.1 4.8 2.1 4.8 4.8"/><path class="st3" d="M-659.7 713s.8 2.8 6.8 2.8c6.1 0 7.3-2.8 7.3-2.8"/><path class="st0" d="M-645.6 712.8c0 1.7-3.2 2.9-7.1 2.9-3.9 0-7.1-1.4-7.1-2.9 0-1.7 3.2-2.9 7.1-2.9 4 0 7.1 1.4 7.1 2.9"/><path class="st4" d="M-648.2 721.1v.4c0 1.7-1.9 3-4.4 3s-4.4-1.4-4.4-3v-.3m10.4-3.9c.6.4 1 1 1 1.5 0 1.7-3.2 2.9-7.1 2.9-3.9 0-7.1-1.4-7.1-2.9 0-.6.4-1.1 1-1.5m12.2-2.9c.6.4 1 1 1 1.5 0 1.7-3.2 2.9-7.1 2.9-3.9 0-7.1-1.4-7.1-2.9 0-.6.4-1.1 1-1.5m13.2-1.6c0 1.7-3.2 2.9-7.1 2.9-3.9 0-7.1-1.4-7.1-2.9 0-1.6 3.2-2.9 7.1-2.9 4 0 7.1 1.4 7.1 2.9zm0 .2v-5.4c4.7-2.5 8.1-7.7 8.1-13.3 0-8.5-6.7-15.2-15.1-15.2-8.4 0-15.1 6.7-15.1 15.1 0 5.7 3.2 10.8 8 13.3v5.5"/></svg>