<svg id="Layer_1" xmlns="http://www.w3.org/2000/svg" width="62.4" height="48.2" viewBox="-691 685.7 62.4 48.2"><style>.st0{fill:#E95D71;} .st1{fill:#EC8592;} .st2{fill:#FFFFFF;} .st3{fill:#EA4863;} .st4{fill:#E93D5D;} .st5{fill:#FEF4F5;}</style><path class="st0" d="M-656.2 686.3h-21.3v47.1h35.4V700z"/><path class="st1" d="M-655.8 686.9v12.9h13.2z"/><path class="st2" d="M-656.2 685.7H-678v48.2h36.5V700h-1.1v32.9h-34.3v-46.1h20.7z"/><path class="st3" d="M-672.6 723h4.6v1.1h-4.6z"/><path class="st4" d="M-665.6 724.1h17.5V723h-17.5"/><path class="st3" d="M-672.6 717.6h4.6v1.1h-4.6z"/><path class="st4" d="M-665.6 718.7h17.5v-1.1h-17.5"/><path class="st3" d="M-672.6 712.2h4.6v1.1h-4.6z"/><path class="st4" d="M-665.6 713.3h17.5v-1.1h-17.5"/><path class="st3" d="M-672.6 706.9h4.6v1.1h-4.6z"/><path class="st4" d="M-665.6 707.9h17.5v-1h-17.5"/><path class="st5" d="M-672.6 724.1h4.6V723h-4.6M-665.6 724.1h17.5V723h-17.5M-672.6 718.7h4.6v-1.1h-4.6M-665.6 718.7h17.5v-1.1h-17.5M-672.6 713.3h4.6v-1.1h-4.6M-665.6 713.3h17.5v-1.1h-17.5M-672.6 707.9h4.6v-1h-4.6M-665.6 707.9h17.5v-1h-17.5"/><path class="st2" d="M-642.6 699.8l.4-.4-14.1-13.8v14.7h15l-.9-.9-.4.4v-.5h-12.7v-11.1l12.4 12 .3-.4v-.5z"/></svg>