<svg id="Layer_1" xmlns="http://www.w3.org/2000/svg" width="320.9" height="69.6" viewBox="-425.6 688.1 320.9 69.6"><style>.st0{fill:#5A87C6;} .st1{fill:#75C044;} .st2{fill:#FAA41A;}</style><path class="st0" d="M-416 723.2c0-17.7 19-32.3 43.3-33.9-1.5-.1-3-.2-4.5-.2-26.4 0-47.8 15.2-47.8 34s21.4 34 47.8 34c1.5 0 3-.1 4.5-.2-24.3-1.4-43.3-15.9-43.3-33.7"/><path class="st1" d="M-405.8 723.2c0-13.7 13.2-25 30.1-26.3-1.1-.1-2.2-.1-3.3-.1-18.5 0-33.5 11.8-33.5 26.5 0 14.6 15 26.5 33.5 26.5 1.1 0 2.2 0 3.3-.1-16.9-1.4-30.1-12.7-30.1-26.5"/><path class="st2" d="M-394.5 723.2c0-12.4 11.9-22.5 27.1-23.7-1-.1-2-.1-3-.1-16.6 0-30.1 10.7-30.1 23.8 0 13.2 13.5 23.8 30.1 23.8 1 0 2 0 3-.1-15.2-1.1-27.1-11.3-27.1-23.7"/><path d="M-371.5 721.6h2c3.4 0 4.6-1.5 4.6-3.4 0-2.1-1.4-3.4-3.8-3.4h-2.8v6.8zm0 1.4v7.6h-2.2v-17.8h5.1c3.4 0 6 2 6 5.4 0 3.2-2.5 5.1-5.4 5.3l6.9 7.1h-3.2l-7.2-7.6zM-350.6 718.4h2.6l-4.7 5.9 4.9 6.2h-2.8l-3.5-4.5-3.6 4.5h-2.7l4.9-6.2-4.7-5.9h2.8l3.3 4.4zM-341.9 712.8h9.2v2.1h-6.9v5.6h6.9v2.1h-6.9v5.8h6.9v2.1h-9.2zM-324.5 728.4c4 0 6.7-3 6.7-7 0-3.8-3-6.6-6.9-6.6h-2.8v13.6h3zm-5.2-15.6h5.8c4.4 0 8.5 3.7 8.5 8.8 0 5.1-4 9-9.1 9h-5.3l.1-17.8zM-303 720.7h9c0 6.4-4.4 10.1-9.4 10.1-6 0-9.4-4.8-9.4-9.2 0-4.4 3.4-9.2 9.4-9.2 2.1 0 4.2.6 6.3 2.4l-1.4 1.7c-1.4-1.3-3.3-2-4.8-2-3.7 0-7 3-7 7.1s3.4 7.1 7 7.1c3.2 0 6.2-2.2 6.9-5.9h-6.6v-2.1zM-291.2 712.8h9.2v2.1h-7v5.6h7v2.1h-7v5.8h7v2.1h-9.2zM-278.5 714.8c.4 0 .6-.1.6-.4 0-.3-.2-.4-.6-.4h-.5v.8h.5zm-.1.3h-.4v1.1h-.4v-2.6h1c.6 0 .9.2.9.7s-.3.7-.7.7l.7 1.1h-.5l-.6-1zm0-2c-1 0-1.8.8-1.8 1.8s.8 1.8 1.8 1.8 1.8-.8 1.8-1.8c.1-1-.7-1.8-1.8-1.8m0-.4c1.2 0 2.2 1 2.2 2.2 0 1.2-1 2.2-2.2 2.2s-2.2-1-2.2-2.2c0-1.2 1-2.2 2.2-2.2"/><g><path class="st0" d="M-262.8 716.7c.8-.1 1.7-.2 3-.2 1.5 0 2.7.4 3.4 1 .7.6 1.1 1.5 1.1 2.5 0 1.1-.3 2-.9 2.6-.8.9-2.2 1.3-3.7 1.3-.5 0-.9 0-1.3-.1v4.9h-1.6v-12zm1.6 5.8c.3.1.8.1 1.3.1 1.9 0 3-.9 3-2.6 0-1.6-1.1-2.4-2.9-2.4-.7 0-1.2.1-1.5.1l.1 4.8zM-252.9 715.9h1.6v5.4c.3-.4.6-.8 1.1-1.1.5-.3 1-.5 1.6-.5 1.2 0 3 .7 3 3.7v5.2h-1.6v-5c0-1.4-.5-2.6-2-2.6-1 0-1.8.7-2.1 1.6-.1.2-.1.5-.1.8v5.3h-1.6v-12.8h.1zM-237.6 728.7l-.1-1.1h-.1c-.5.7-1.4 1.3-2.7 1.3-1.8 0-2.7-1.2-2.7-2.5 0-2.1 1.9-3.3 5.2-3.2v-.2c0-.7-.2-2-2-2-.8 0-1.7.3-2.3.6l-.4-1c.7-.5 1.8-.8 2.9-.8 2.7 0 3.3 1.8 3.3 3.6v3.3c0 .8 0 1.5.1 2.1l-1.2-.1zm-.2-4.5c-1.7 0-3.7.3-3.7 2 0 1 .7 1.5 1.5 1.5 1.1 0 1.9-.7 2.1-1.5.1-.2.1-.3.1-.5v-1.5zM-233.3 722.7c0-1 0-1.9-.1-2.7h1.4l.1 1.7h.1c.4-1.2 1.4-1.9 2.4-1.9.2 0 .3 0 .5.1v1.4c-.2 0-.3-.1-.5-.1-1.1 0-1.9.8-2.1 2 0 .2-.1.5-.1.7v4.7h-1.6l-.1-5.9zM-226.8 722.3c0-.9 0-1.6-.1-2.4h1.4l.1 1.4h.1c.5-.8 1.3-1.6 2.7-1.6 1.2 0 2.1.7 2.5 1.7.3-.5.6-.9 1-1.1.5-.4 1.1-.6 1.9-.6 1.2 0 2.9.8 2.9 3.8v5.1h-1.5v-4.9c0-1.7-.6-2.7-1.9-2.7-.9 0-1.6.7-1.9 1.4-.1.2-.1.5-.1.8v5.4h-1.5v-5.2c0-1.4-.6-2.4-1.8-2.4-1 0-1.7.8-2 1.6-.1.2-.1.5-.1.8v5.3h-1.5v-6.4h-.2zM-206.4 728.7l-.1-1.1h-.1c-.5.7-1.4 1.3-2.7 1.3-1.8 0-2.7-1.2-2.7-2.5 0-2.1 1.9-3.3 5.2-3.2v-.2c0-.7-.2-2-2-2-.8 0-1.7.3-2.3.6l-.4-1c.7-.5 1.8-.8 2.9-.8 2.7 0 3.3 1.8 3.3 3.6v3.3c0 .8 0 1.5.1 2.1l-1.2-.1zm-.3-4.5c-1.7 0-3.7.3-3.7 2 0 1 .7 1.5 1.5 1.5 1.1 0 1.9-.7 2.1-1.5.1-.2.1-.3.1-.5v-1.5zM-195.8 728.4c-.4.2-1.3.5-2.5.5-2.6 0-4.3-1.8-4.3-4.5s1.8-4.6 4.7-4.6c.9 0 1.8.2 2.2.5l-.4 1.2c-.4-.2-1-.4-1.8-.4-2 0-3.1 1.5-3.1 3.3 0 2 1.3 3.3 3 3.3.9 0 1.5-.2 1.9-.4l.3 1.1zM-192.4 720l1.9 5.2c.2.6.4 1.3.6 1.8.2-.5.3-1.2.6-1.8l1.7-5.1h1.7l-2.4 6.2c-1.1 3-1.9 4.5-3 5.5-.8.7-1.5 1-1.9 1l-.4-1.3c.4-.1.9-.4 1.4-.8.4-.3 1-1 1.3-1.8.1-.2.1-.3.1-.4 0-.1 0-.2-.1-.4l-3.2-8 1.7-.1zM-179.2 728.7v-12.2h1.7l3.9 6.1c.9 1.4 1.6 2.7 2.2 3.9-.1-1.6-.2-3.1-.2-5v-5.1h1.5v12.1h-1.6l-3.9-6.2c-.8-1.4-1.7-2.7-2.3-4.1h-.1c.1 1.5.1 3 .1 5v5.2h-1.3v.3zM-165.8 724.6c0 2.1 1.4 3 3 3 1.1 0 1.8-.2 2.4-.5l.3 1.1c-.6.3-1.5.5-2.9.5-2.7 0-4.3-1.8-4.3-4.4s1.5-4.7 4.1-4.7c2.8 0 3.6 2.5 3.6 4.1 0 .3 0 .6-.1.7h-6.1v.2zm4.6-1.1c0-1-.4-2.6-2.2-2.6-1.6 0-2.3 1.5-2.4 2.6h4.6zM-155.2 717.5v2.5h2.3v1.2h-2.3v4.7c0 1.1.3 1.7 1.2 1.7.4 0 .7-.1.9-.1l.1 1.2c-.3.1-.8.2-1.4.2-.7 0-1.3-.2-1.7-.7-.5-.5-.6-1.2-.6-2.3v-4.8h-1.4v-1.2h1.4v-2.1l1.5-.3zM-149.6 720l1.2 4.4c.3 1 .5 1.9.6 2.8h.1c.2-.9.5-1.8.8-2.8l1.4-4.5h1.3l1.4 4.4c.3 1 .6 2 .8 2.8h.1c.1-.9.4-1.8.7-2.8l1.2-4.4h1.6l-2.8 8.7h-1.4l-1.3-4.2c-.3-1-.6-1.8-.8-2.9-.2 1-.5 1.9-.8 2.9l-1.4 4.1h-1.4l-2.6-8.7h1.3v.2zM-128.6 724.2c0 3.2-2.2 4.6-4.3 4.6-2.4 0-4.2-1.7-4.2-4.5 0-2.9 1.9-4.6 4.3-4.6 2.5.1 4.2 1.9 4.2 4.5zm-6.9.1c0 1.9 1.1 3.4 2.6 3.4s2.6-1.4 2.6-3.4c0-1.5-.7-3.4-2.6-3.4s-2.6 1.8-2.6 3.4zM-126.1 722.7c0-1 0-1.9-.1-2.7h1.4l.1 1.7h.1c.4-1.2 1.4-1.9 2.4-1.9.2 0 .3 0 .5.1v1.4c-.2 0-.3-.1-.5-.1-1.1 0-1.9.8-2.1 2 0 .2-.1.5-.1.7v4.7h-1.6l-.1-5.9zM-118 724c.3-.3.6-.7.8-1l2.6-3h1.9l-3.4 3.6 3.8 5.1h-1.9l-3-4.2-.8.9v3.3h-1.6v-12.8h1.6v8.1zM-110.3 727.1c.5.3 1.3.6 2.1.6 1.2 0 1.7-.6 1.7-1.3 0-.8-.5-1.2-1.6-1.6-1.6-.6-2.3-1.4-2.3-2.5 0-1.4 1.1-2.6 3-2.6.9 0 1.7.3 2.1.5l-.4 1.2c-.3-.2-1-.5-1.8-.5-.9 0-1.5.5-1.5 1.2s.5 1 1.7 1.5c1.5.6 2.3 1.3 2.3 2.6 0 1.5-1.2 2.6-3.3 2.6-1 0-1.8-.2-2.5-.6l.5-1.1z"/></g></svg>